<?xml version="1.0" standalone="no"?>
<!DOCTYPE svg PUBLIC "-//W3C//DTD SVG 20010904//EN"
 "http://www.w3.org/TR/2001/REC-SVG-20010904/DTD/svg10.dtd">
<svg version="1.0" xmlns="http://www.w3.org/2000/svg"
 width="217.000000pt" height="217.000000pt" viewBox="0 0 217.000000 217.000000"
 preserveAspectRatio="xMidYMid meet">
<metadata>
Created by potrace 1.14, written by Peter Selinger 2001-2017
</metadata>
<g transform="translate(0.000000,217.000000) scale(0.100000,-0.100000)"
fill="#000000" stroke="none">
<path d="M616 1474 c-13 -13 -16 -43 -16 -175 0 -135 -2 -159 -15 -159 -12 0
-15 20 -15 119 0 139 -6 151 -75 151 -69 0 -75 -12 -75 -151 0 -73 -4 -119
-10 -119 -6 0 -10 34 -10 83 -1 97 -11 117 -63 117 -56 0 -67 -19 -67 -116 l0
-84 -130 0 -130 0 -6 -25 c-3 -14 -3 -36 0 -50 l6 -25 130 0 130 0 0 -84 c0
-96 11 -116 64 -116 53 0 66 24 66 118 0 48 4 82 10 82 6 0 10 -45 10 -114 0
-134 6 -146 75 -146 69 0 75 12 75 146 0 95 3 114 15 114 13 0 15 -24 15 -159
0 -187 2 -191 85 -191 83 0 85 4 85 191 l0 159 320 0 320 0 0 -157 c1 -189 3
-193 82 -193 85 0 88 6 88 193 0 133 2 157 15 157 12 0 15 -19 15 -114 0 -134
6 -146 75 -146 69 0 75 12 75 146 0 69 4 114 10 114 6 0 10 -34 10 -82 1 -98
11 -118 63 -118 56 0 67 19 67 116 l0 84 114 0 c63 0 121 3 130 6 9 4 16 18
16 34 0 59 -1 60 -136 60 l-124 0 0 84 c0 96 -11 116 -63 116 -58 -1 -67 -17
-67 -114 0 -51 -4 -86 -10 -86 -6 0 -10 46 -10 119 0 139 -6 151 -75 151 -69
0 -75 -12 -75 -151 0 -99 -3 -119 -15 -119 -13 0 -15 24 -15 159 0 187 -2 191
-85 191 -83 0 -85 -4 -85 -191 l0 -159 -320 0 -320 0 0 159 c0 187 -2 191 -85
191 -35 0 -59 -5 -69 -16z"/>
</g>
</svg>
